<svg width="513" height="513" viewBox="0 0 513 513" fill="none" xmlns="http://www.w3.org/2000/svg"><path fill-rule="evenodd" clip-rule="evenodd" d="m.64 187.656 154.556 195.985L.64 512.382V187.656Zm62.202 324.726 116.296-97.796 80.381 97.796H62.842ZM.64 82.787l40.333 51.287L206.81 342.381l53.737-43.016s-44.611-52.795-74.566-111.709C127.415 72.472 168.878.758 168.878.758H.64v82.029Zm229.811 291.75 54.728-45.441s52.268 69.164 112.875 85.488c79.422 21.392 114.586-30.945 114.586-30.945V512.38H338.196l39.335-34.187s-20.523 13.753-70.715-21.195c-29.625-20.626-76.365-82.461-76.365-82.461ZM235.476.382s-17.459 23.908-5.032 82.404c13.284 62.524 66.112 128.7 65.989 127.218 0 0 3.396-65.709 41.756-104.269 81.765-82.192 174.444-33.264 174.444-33.264V.757L235.476.382Z" fill="#F15A23"/><path fill-rule="evenodd" clip-rule="evenodd" d="M512.634 159.117s-51.708-44.521-96.663-44.521c-57.508 0-88.898 49.907-88.898 86.11 0 52.731 25.179 82.032 50.452 107.436 36.319 36.508 80.503 75.883 135.109 44.192V159.117Z" fill="#F15A23"/></svg>